<?xml version="1.0" standalone="no"?>
<svg xmlns="http://www.w3.org/2000/svg" xmlns:xlink="http://www.w3.org/1999/xlink" width="518pt" height="1180pt" viewBox="0.00 0.00 518.17 1180.00">
<g id="graph0" class="graph" transform="translate(-415.5245495611912,2163.3147477708526) scale(1.7411011265922502)" data-name="G">

<polygon fill="#2e3e56" stroke="transparent" points="-4,4 -4,-1176 514.17,-1176 514.17,4 -4,4" style=""/>
<g id="clust1" class="cluster" data-name="clusterdewed">

<path fill="#445773" stroke="rgb(48,64,88)" d="M20,-178C20,-178 490.17,-178 490.17,-178 496.17,-178 502.17,-184 502.17,-190 502.17,-190 502.17,-1015 502.17,-1015 502.17,-1021 496.17,-1027 490.17,-1027 490.17,-1027 20,-1027 20,-1027 14,-1027 8,-1021 8,-1015 8,-1015 8,-190 8,-190 8,-184 14,-178 20,-178" style=""/>
<text text-anchor="middle" x="255.09" y="-1010.4" font-family="Times,serif" font-size="14.00" fill="#f0f0f0" style="">dewed</text>
</g>
<g id="clust2" class="cluster" data-name="clusterMerkleProof">

<path fill="#3b4b63" stroke="rgb(64,67,88)" stroke-dasharray="5,2" d="M349.58,-93C349.58,-93 412.77,-93 412.77,-93 418.77,-93 424.77,-99 424.77,-105 424.77,-105 424.77,-158 424.77,-158 424.77,-164 418.77,-170 412.77,-170 412.77,-170 349.58,-170 349.58,-170 343.58,-170 337.58,-164 337.58,-158 337.58,-158 337.58,-105 337.58,-105 337.58,-99 343.58,-93 349.58,-93" style=""/>
<text text-anchor="middle" x="381.17" y="-153.4" font-family="Times,serif" font-size="14.00" fill="#f0f0f0" style="">MerkleProof</text>
</g>
<g id="clust3" class="cluster" data-name="cluster_tokenId">

<path fill="#3b4b63" stroke="rgb(64,67,88)" stroke-dasharray="5,2" d="M342.52,-8C342.52,-8 418.83,-8 418.83,-8 424.83,-8 430.83,-14 430.83,-20 430.83,-20 430.83,-73 430.83,-73 430.83,-79 424.83,-85 418.83,-85 418.83,-85 342.52,-85 342.52,-85 336.52,-85 330.52,-79 330.52,-73 330.52,-73 330.52,-20 330.52,-20 330.52,-14 336.52,-8 342.52,-8" style=""/>
<text text-anchor="middle" x="380.67" y="-68.4" font-family="Times,serif" font-size="14.00" fill="#f0f0f0" style="">_tokenId</text>
</g>
<g id="clust4" class="cluster" data-name="cluster_01">

<polygon fill="rgb(46,62,86)" stroke="rgb(41,55,77)" points="50.59,-1035 50.59,-1164 415.67,-1164 415.67,-1035 50.59,-1035" style=""/>
<text text-anchor="middle" x="233.13" y="-1147.4" font-family="Times,serif" font-size="14.00" style="">Legend</text>
</g>
<!-- dewed.&lt;Constructor&gt; -->
<g id="node1" class="node" pointer-events="visible" data-name="dewed.&lt;Constructor&gt;">

<ellipse fill="#ff9797" stroke="#ff9797" stroke-width="3" cx="123.59" cy="-976" rx="67.55" ry="18" style=""/>
<text text-anchor="middle" x="123.59" y="-971.8" font-family="Times,serif" font-size="14.00" style="">&lt;Constructor&gt;</text>
</g>
<!-- dewed.setCost -->
<g id="node11" class="node" pointer-events="visible" data-name="dewed.setCost">

<ellipse fill="rgb(65,73,86)" stroke="rgb(65,73,86)" stroke-width="3" cx="380.67" cy="-868" rx="39.45" ry="18" style=""/>
<text text-anchor="middle" x="380.67" y="-863.8" font-family="Times,serif" font-size="14.00" style="">setCost</text>
</g>
<!-- dewed.&lt;Constructor&gt;&#45;&gt;dewed.setCost -->
<g id="edge1" class="edge" data-name="dewed.&lt;Constructor&gt;-&gt;dewed.setCost">

<path fill="none" stroke="rgb(44,75,94)" stroke-width="2" d="M185.44,-968.63C201.34,-964.63 217.77,-958.48 231.17,-949 254.73,-932.35 243.52,-911.5 267.17,-895 285.86,-881.96 310.08,-875.18 331.25,-871.66" style=""/>
<polygon fill="rgb(44,75,94)" stroke="rgb(44,75,94)" stroke-width="2" points="331.97,-875.1 341.36,-870.19 330.96,-868.17 331.97,-875.1" style=""/>
</g>
<!-- dewed.setMaxMintAmountPerTx -->
<g id="node12" class="node" pointer-events="visible" data-name="dewed.setMaxMintAmountPerTx">

<ellipse fill="rgb(65,73,86)" stroke="rgb(65,73,86)" stroke-width="3" cx="380.67" cy="-922" rx="113.5" ry="18" style=""/>
<text text-anchor="middle" x="380.67" y="-917.8" font-family="Times,serif" font-size="14.00" style="">setMaxMintAmountPerTx</text>
</g>
<!-- dewed.&lt;Constructor&gt;&#45;&gt;dewed.setMaxMintAmountPerTx -->
<g id="edge2" class="edge" data-name="dewed.&lt;Constructor&gt;-&gt;dewed.setMaxMintAmountPerTx">

<path fill="none" stroke="rgb(44,75,94)" stroke-width="2" d="M177.13,-964.88C213.11,-957.26 261.43,-947.03 301.85,-938.47" style=""/>
<polygon fill="rgb(44,75,94)" stroke="rgb(44,75,94)" stroke-width="2" points="302.62,-941.89 311.68,-936.39 301.17,-935.04 302.62,-941.89" style=""/>
</g>
<!-- dewed.setHiddenMetadataUri -->
<g id="node13" class="node" pointer-events="visible" data-name="dewed.setHiddenMetadataUri">

<ellipse fill="#edad56" stroke="#edad56" stroke-width="3" cx="380.67" cy="-976" rx="98.98" ry="18" style=""/>
<text text-anchor="middle" x="380.67" y="-971.8" font-family="Times,serif" font-size="14.00" style="">setHiddenMetadataUri</text>
</g>
<!-- dewed.&lt;Constructor&gt;&#45;&gt;dewed.setHiddenMetadataUri -->
<g id="edge3" class="edge" data-name="dewed.&lt;Constructor&gt;-&gt;dewed.setHiddenMetadataUri">

<path fill="none" stroke="#1bc6a6" stroke-width="2" d="M191.28,-976C215.75,-976 244.14,-976 271.33,-976" style=""/>
<polygon fill="#1bc6a6" stroke="#1bc6a6" stroke-width="2" points="271.68,-979.5 281.68,-976 271.68,-972.5 271.68,-979.5" style=""/>
</g>
<!-- dewed.mintCompliance -->
<g id="node2" class="node" pointer-events="visible" data-name="dewed.mintCompliance">

<polygon fill="rgb(65,73,86)" stroke="rgb(44,75,94)" stroke-width="3" points="205.32,-910.54 205.32,-925.46 157.44,-936 89.73,-936 41.86,-925.46 41.86,-910.54 89.73,-900 157.44,-900 205.32,-910.54" style=""/>
<polygon fill="none" stroke="rgb(44,75,94)" stroke-width="3" points="209.32,-907.33 209.32,-928.67 157.88,-940 89.3,-940 37.85,-928.67 37.85,-907.33 89.3,-896 157.88,-896 209.32,-907.33" style=""/>
<text text-anchor="middle" x="123.59" y="-913.8" font-family="Times,serif" font-size="14.00" style="">mintCompliance</text>
</g>
<!-- dewed.totalSupply -->
<g id="node21" class="node" pointer-events="visible" data-name="dewed.totalSupply">

<ellipse fill="rgb(65,73,86)" stroke="rgb(65,73,86)" stroke-width="3" cx="380.67" cy="-814" rx="55.64" ry="18" style=""/>
<text text-anchor="middle" x="380.67" y="-809.8" font-family="Times,serif" font-size="14.00" style="">totalSupply</text>
</g>
<!-- dewed.mintCompliance&#45;&gt;dewed.totalSupply -->
<g id="edge4" class="edge" data-name="dewed.mintCompliance-&gt;dewed.totalSupply">

<path fill="none" stroke="rgb(44,75,94)" stroke-width="2" d="M195.33,-904.19C207.9,-899.89 220.4,-894.29 231.17,-887 252.68,-872.45 245.33,-855.03 267.17,-841 282.08,-831.42 300.06,-825.24 317.24,-821.25" style=""/>
<polygon fill="rgb(44,75,94)" stroke="rgb(44,75,94)" stroke-width="2" points="318.17,-824.63 327.23,-819.15 316.72,-817.78 318.17,-824.63" style=""/>
</g>
<!-- dewed.mintPriceCompliance -->
<g id="node3" class="node" pointer-events="visible" data-name="dewed.mintPriceCompliance">

<polygon fill="rgb(65,73,86)" stroke="rgb(44,75,94)" stroke-width="3" points="226.77,-848.54 226.77,-863.46 166.33,-874 80.85,-874 20.4,-863.46 20.4,-848.54 80.85,-838 166.33,-838 226.77,-848.54" style=""/>
<polygon fill="none" stroke="rgb(44,75,94)" stroke-width="3" points="230.78,-845.18 230.78,-866.82 166.68,-878 80.5,-878 16.4,-866.82 16.4,-845.18 80.5,-834 166.68,-834 230.78,-845.18" style=""/>
<text text-anchor="middle" x="123.59" y="-851.8" font-family="Times,serif" font-size="14.00" style="">mintPriceCompliance</text>
</g>
<!-- dewed.whitelistMint -->
<g id="node4" class="node" pointer-events="visible" data-name="dewed.whitelistMint">

<ellipse fill="rgb(66,70,92)" stroke="rgb(66,81,102)" stroke-width="3" cx="123.59" cy="-798" rx="63.16" ry="18" style=""/>
<text text-anchor="middle" x="123.59" y="-793.8" font-family="Times,serif" font-size="14.00" style="">whitelistMint</text>
</g>
<!-- dewed._msgSender -->
<g id="node22" class="node" pointer-events="visible" data-name="dewed._msgSender">

<ellipse fill="rgb(65,73,86)" stroke="rgb(65,73,86)" stroke-width="3" cx="380.67" cy="-760" rx="58.56" ry="18" style=""/>
<text text-anchor="middle" x="380.67" y="-755.8" font-family="Times,serif" font-size="14.00" style="">_msgSender</text>
</g>
<!-- dewed.whitelistMint&#45;&gt;dewed._msgSender -->
<g id="edge5" class="edge" data-name="dewed.whitelistMint-&gt;dewed._msgSender">

<path fill="none" stroke="rgb(44,75,94)" stroke-width="2" d="M149.98,-781.49C189.16,-767.61 265.48,-754.65 319.37,-751.48" style=""/>
<polygon fill="rgb(44,75,94)" stroke="rgb(44,75,94)" stroke-width="2" points="319.67,-754.97 329.49,-750.99 319.33,-747.97 319.67,-754.97" style=""/>
</g>
<!-- dewed.whitelistMint&#45;&gt;dewed._msgSender -->
<g id="edge6" class="edge" data-name="dewed.whitelistMint-&gt;dewed._msgSender">

<path fill="none" stroke="rgb(44,75,94)" stroke-width="2" d="M170.49,-785.83C210.01,-778.33 267.58,-769.51 312.32,-764" style=""/>
<polygon fill="rgb(44,75,94)" stroke="rgb(44,75,94)" stroke-width="2" points="313.02,-767.44 322.53,-762.78 312.18,-760.49 313.02,-767.44" style=""/>
</g>
<!-- dewed.whitelistMint&#45;&gt;dewed._msgSender -->
<g id="edge8" class="edge" data-name="dewed.whitelistMint-&gt;dewed._msgSender">

<path fill="none" stroke="rgb(44,75,94)" stroke-width="2" d="M185.69,-794.76C228.35,-789.66 284.78,-781.18 325.77,-773.66" style=""/>
<polygon fill="rgb(44,75,94)" stroke="rgb(44,75,94)" stroke-width="2" points="326.66,-777.05 335.84,-771.77 325.37,-770.17 326.66,-777.05" style=""/>
</g>
<!-- dewed.whitelistMint&#45;&gt;dewed._msgSender -->
<g id="edge10" class="edge" data-name="dewed.whitelistMint-&gt;dewed._msgSender">

<path fill="none" stroke="rgb(44,75,94)" stroke-width="2" d="M178.68,-806.85C229.05,-804.53 302.6,-792.73 345.35,-779.47" style=""/>
<polygon fill="rgb(44,75,94)" stroke="rgb(44,75,94)" stroke-width="2" points="346.63,-782.73 355.01,-776.25 344.42,-776.09 346.63,-782.73" style=""/>
</g>
<!-- dewed._safeMint -->
<g id="node23" class="node" pointer-events="visible" data-name="dewed._safeMint">

<ellipse fill="rgb(65,73,86)" stroke="rgb(65,73,86)" stroke-width="3" cx="380.67" cy="-706" rx="50.39" ry="18" style=""/>
<text text-anchor="middle" x="380.67" y="-701.8" font-family="Times,serif" font-size="14.00" style="">_safeMint</text>
</g>
<!-- dewed.whitelistMint&#45;&gt;dewed._safeMint -->
<g id="edge9" class="edge" data-name="dewed.whitelistMint-&gt;dewed._safeMint">

<path fill="none" stroke="rgb(44,75,94)" stroke-width="2" d="M180.29,-790.09C197.41,-786.06 215.78,-780.03 231.17,-771 251.24,-759.23 247.03,-744.64 267.17,-733 283.98,-723.29 304.13,-717.06 322.7,-713.07" style=""/>
<polygon fill="rgb(44,75,94)" stroke="rgb(44,75,94)" stroke-width="2" points="323.4,-716.5 332.53,-711.13 322.04,-709.63 323.4,-716.5" style=""/>
</g>
<!-- MerkleProof.verify -->
<g id="node28" class="node" pointer-events="visible" data-name="MerkleProof.verify">

<ellipse fill="rgb(65,73,86)" stroke="rgb(65,73,86)" stroke-width="3" cx="380.67" cy="-119" rx="34.19" ry="18" style=""/>
<text text-anchor="middle" x="380.67" y="-114.8" font-family="Times,serif" font-size="14.00" style="">verify</text>
</g>
<!-- dewed.whitelistMint&#45;&gt;MerkleProof.verify -->
<g id="edge7" class="edge" data-name="dewed.whitelistMint-&gt;MerkleProof.verify">

<path fill="none" stroke="rgb(66,81,102)" stroke-width="2" d="M186.26,-795.55C203.24,-791.74 220.04,-784.45 231.17,-771 315.92,-668.62 193.43,-284.57 267.17,-174 283.41,-149.65 313.69,-135.7 338.74,-127.95" style=""/>
<polygon fill="rgb(66,81,102)" stroke="rgb(66,81,102)" stroke-width="2" points="339.75,-131.3 348.4,-125.18 337.82,-124.57 339.75,-131.3" style=""/>
</g>
<!-- dewed.mint -->
<g id="node5" class="node" pointer-events="visible" data-name="dewed.mint">

<ellipse fill="rgb(66,70,92)" stroke="rgb(66,81,102)" stroke-width="3" cx="123.59" cy="-744" rx="28.99" ry="18" style=""/>
<text text-anchor="middle" x="123.59" y="-739.8" font-family="Times,serif" font-size="14.00" style="">mint</text>
</g>
<!-- dewed.mint&#45;&gt;dewed._msgSender -->
<g id="edge12" class="edge" data-name="dewed.mint-&gt;dewed._msgSender">

<path fill="none" stroke="rgb(44,75,94)" stroke-width="2" d="M152.37,-745.74C190.56,-748.14 260.49,-752.52 312.74,-755.8" style=""/>
<polygon fill="rgb(44,75,94)" stroke="rgb(44,75,94)" stroke-width="2" points="312.73,-759.31 322.93,-756.44 313.17,-752.32 312.73,-759.31" style=""/>
</g>
<!-- dewed.mint&#45;&gt;dewed._safeMint -->
<g id="edge11" class="edge" data-name="dewed.mint-&gt;dewed._safeMint">

<path fill="none" stroke="rgb(44,75,94)" stroke-width="2" d="M151.89,-739.93C192.82,-733.84 270.96,-722.19 324.19,-714.27" style=""/>
<polygon fill="rgb(44,75,94)" stroke="rgb(44,75,94)" stroke-width="2" points="324.78,-717.72 334.15,-712.78 323.75,-710.79 324.78,-717.72" style=""/>
</g>
<!-- dewed.mintForAddress -->
<g id="node6" class="node" pointer-events="visible" data-name="dewed.mintForAddress">

<ellipse fill="rgb(66,70,92)" stroke="rgb(66,70,92)" stroke-width="3" cx="123.59" cy="-690" rx="73.61" ry="18" style=""/>
<text text-anchor="middle" x="123.59" y="-685.8" font-family="Times,serif" font-size="14.00" style="">mintForAddress</text>
</g>
<!-- dewed.mintForAddress&#45;&gt;dewed._safeMint -->
<g id="edge13" class="edge" data-name="dewed.mintForAddress-&gt;dewed._safeMint">

<path fill="none" stroke="rgb(44,75,94)" stroke-width="2" d="M195.3,-694.44C234.79,-696.91 283.42,-699.96 320.81,-702.31" style=""/>
<polygon fill="rgb(44,75,94)" stroke="rgb(44,75,94)" stroke-width="2" points="320.85,-705.82 331.05,-702.95 321.29,-698.83 320.85,-705.82" style=""/>
</g>
<!-- dewed.walletOfOwner -->
<g id="node7" class="node" pointer-events="visible" data-name="dewed.walletOfOwner">

<ellipse fill="rgb(66,70,92)" stroke="rgb(66,70,92)" stroke-width="3" cx="123.59" cy="-636" rx="71.2" ry="18" style=""/>
<text text-anchor="middle" x="123.59" y="-631.8" font-family="Times,serif" font-size="14.00" style="">walletOfOwner</text>
</g>
<!-- dewed._startTokenId -->
<g id="node8" class="node" pointer-events="visible" data-name="dewed._startTokenId">

<ellipse fill="rgb(65,73,86)" stroke="rgb(65,73,86)" stroke-width="3" cx="380.67" cy="-598" rx="65.41" ry="18" style=""/>
<text text-anchor="middle" x="380.67" y="-593.8" font-family="Times,serif" font-size="14.00" style="">_startTokenId</text>
</g>
<!-- dewed.walletOfOwner&#45;&gt;dewed._startTokenId -->
<g id="edge15" class="edge" data-name="dewed.walletOfOwner-&gt;dewed._startTokenId">

<path fill="none" stroke="rgb(44,75,94)" stroke-width="2" d="M185.36,-626.95C223.73,-621.23 273.31,-613.84 312.79,-607.96" style=""/>
<polygon fill="rgb(44,75,94)" stroke="rgb(44,75,94)" stroke-width="2" points="313.48,-611.4 322.86,-606.46 312.45,-604.48 313.48,-611.4" style=""/>
</g>
<!-- dewed.balanceOf -->
<g id="node24" class="node" pointer-events="visible" data-name="dewed.balanceOf">

<ellipse fill="rgb(65,73,86)" stroke="rgb(65,73,86)" stroke-width="3" cx="380.67" cy="-652" rx="50.92" ry="18" style=""/>
<text text-anchor="middle" x="380.67" y="-647.8" font-family="Times,serif" font-size="14.00" style="">balanceOf</text>
</g>
<!-- dewed.walletOfOwner&#45;&gt;dewed.balanceOf -->
<g id="edge14" class="edge" data-name="dewed.walletOfOwner-&gt;dewed.balanceOf">

<path fill="none" stroke="rgb(44,75,94)" stroke-width="2" d="M192.95,-640.29C232.61,-642.78 282.07,-645.88 320.13,-648.27" style=""/>
<polygon fill="rgb(44,75,94)" stroke="rgb(44,75,94)" stroke-width="2" points="320.34,-651.79 330.54,-648.92 320.78,-644.8 320.34,-651.79" style=""/>
</g>
<!-- dewed.tokenURI -->
<g id="node9" class="node" pointer-events="visible" data-name="dewed.tokenURI">

<ellipse fill="rgb(66,70,92)" stroke="rgb(66,70,92)" stroke-width="3" cx="123.59" cy="-582" rx="49.24" ry="18" style=""/>
<text text-anchor="middle" x="123.59" y="-577.8" font-family="Times,serif" font-size="14.00" style="">tokenURI</text>
</g>
<!-- dewed._baseURI -->
<g id="node20" class="node" pointer-events="visible" data-name="dewed._baseURI">

<ellipse fill="rgb(65,73,86)" stroke="rgb(65,73,86)" stroke-width="3" cx="380.67" cy="-490" rx="49.81" ry="18" style=""/>
<text text-anchor="middle" x="380.67" y="-485.8" font-family="Times,serif" font-size="14.00" style="">_baseURI</text>
</g>
<!-- dewed.tokenURI&#45;&gt;dewed._baseURI -->
<g id="edge17" class="edge" data-name="dewed.tokenURI-&gt;dewed._baseURI">

<path fill="none" stroke="rgb(44,75,94)" stroke-width="2" d="M170.31,-576.25C190.02,-572.33 212.73,-565.81 231.17,-555 251.24,-543.23 247.03,-528.64 267.17,-517 284.05,-507.25 304.3,-501.01 322.94,-497.02" style=""/>
<polygon fill="rgb(44,75,94)" stroke="rgb(44,75,94)" stroke-width="2" points="323.67,-500.44 332.81,-495.08 322.32,-493.58 323.67,-500.44" style=""/>
</g>
<!-- dewed._exists -->
<g id="node25" class="node" pointer-events="visible" data-name="dewed._exists">

<ellipse fill="rgb(65,73,86)" stroke="rgb(65,73,86)" stroke-width="3" cx="380.67" cy="-544" rx="37.72" ry="18" style=""/>
<text text-anchor="middle" x="380.67" y="-539.8" font-family="Times,serif" font-size="14.00" style="">_exists</text>
</g>
<!-- dewed.tokenURI&#45;&gt;dewed._exists -->
<g id="edge16" class="edge" data-name="dewed.tokenURI-&gt;dewed._exists">

<path fill="none" stroke="rgb(44,75,94)" stroke-width="2" d="M169.31,-575.34C215.67,-568.43 287.75,-557.69 334.34,-550.75" style=""/>
<polygon fill="rgb(44,75,94)" stroke="rgb(44,75,94)" stroke-width="2" points="335.07,-554.18 344.45,-549.25 334.04,-547.26 335.07,-554.18" style=""/>
</g>
<!-- _tokenId.toString -->
<g id="node29" class="node" pointer-events="visible" data-name="_tokenId.toString">

<ellipse fill="rgb(65,73,86)" stroke="rgb(65,73,86)" stroke-width="3" cx="380.67" cy="-34" rx="42.32" ry="18" style=""/>
<text text-anchor="middle" x="380.67" y="-29.8" font-family="Times,serif" font-size="14.00" style="">toString</text>
</g>
<!-- dewed.tokenURI&#45;&gt;_tokenId.toString -->
<g id="edge18" class="edge" data-name="dewed.tokenURI-&gt;_tokenId.toString">

<path fill="none" stroke="rgb(66,81,102)" stroke-width="2" d="M172.83,-581.77C193.89,-579.01 216.97,-571.86 231.17,-555 298.08,-475.55 208.82,-174.92 267.17,-89 282.36,-66.63 309.35,-53.02 333.08,-44.93" style=""/>
<polygon fill="rgb(66,81,102)" stroke="rgb(66,81,102)" stroke-width="2" points="334.19,-48.25 342.66,-41.89 332.07,-41.58 334.19,-48.25" style=""/>
</g>
<!-- dewed.setRevealed -->
<g id="node10" class="node" pointer-events="visible" data-name="dewed.setRevealed">

<ellipse fill="rgb(66,70,92)" stroke="rgb(66,70,92)" stroke-width="3" cx="123.59" cy="-528" rx="57.88" ry="18" style=""/>
<text text-anchor="middle" x="123.59" y="-523.8" font-family="Times,serif" font-size="14.00" style="">setRevealed</text>
</g>
<!-- dewed.setUriPrefix -->
<g id="node14" class="node" pointer-events="visible" data-name="dewed.setUriPrefix">

<ellipse fill="rgb(66,70,92)" stroke="rgb(66,70,92)" stroke-width="3" cx="123.59" cy="-474" rx="58.47" ry="18" style=""/>
<text text-anchor="middle" x="123.59" y="-469.8" font-family="Times,serif" font-size="14.00" style="">setUriPrefix</text>
</g>
<!-- dewed.setUriSuffix -->
<g id="node15" class="node" pointer-events="visible" data-name="dewed.setUriSuffix">

<ellipse fill="rgb(66,70,92)" stroke="rgb(66,70,92)" stroke-width="3" cx="123.59" cy="-420" rx="58.56" ry="18" style=""/>
<text text-anchor="middle" x="123.59" y="-415.8" font-family="Times,serif" font-size="14.00" style="">setUriSuffix</text>
</g>
<!-- dewed.setPaused -->
<g id="node16" class="node" pointer-events="visible" data-name="dewed.setPaused">

<ellipse fill="rgb(66,70,92)" stroke="rgb(66,70,92)" stroke-width="3" cx="123.59" cy="-366" rx="49.24" ry="18" style=""/>
<text text-anchor="middle" x="123.59" y="-361.8" font-family="Times,serif" font-size="14.00" style="">setPaused</text>
</g>
<!-- dewed.setMerkleRoot -->
<g id="node17" class="node" pointer-events="visible" data-name="dewed.setMerkleRoot">

<ellipse fill="rgb(66,70,92)" stroke="rgb(66,70,92)" stroke-width="3" cx="123.59" cy="-312" rx="68.36" ry="18" style=""/>
<text text-anchor="middle" x="123.59" y="-307.8" font-family="Times,serif" font-size="14.00" style="">setMerkleRoot</text>
</g>
<!-- dewed.setWhitelistMintEnabled -->
<g id="node18" class="node" pointer-events="visible" data-name="dewed.setWhitelistMintEnabled">

<ellipse fill="rgb(66,70,92)" stroke="rgb(66,70,92)" stroke-width="3" cx="123.59" cy="-258" rx="107.67" ry="18" style=""/>
<text text-anchor="middle" x="123.59" y="-253.8" font-family="Times,serif" font-size="14.00" style="">setWhitelistMintEnabled</text>
</g>
<!-- dewed.withdraw -->
<g id="node19" class="node" pointer-events="visible" data-name="dewed.withdraw">

<ellipse fill="rgb(66,70,92)" stroke="rgb(66,70,92)" stroke-width="3" cx="123.59" cy="-204" rx="47.52" ry="18" style=""/>
<text text-anchor="middle" x="123.59" y="-199.8" font-family="Times,serif" font-size="14.00" style="">withdraw</text>
</g>
<!-- dewed.payable -->
<g id="node26" class="node" pointer-events="visible" data-name="dewed.payable">

<ellipse fill="rgb(65,73,86)" stroke="rgb(65,73,86)" stroke-width="3" cx="380.67" cy="-204" rx="41.13" ry="18" style=""/>
<text text-anchor="middle" x="380.67" y="-199.8" font-family="Times,serif" font-size="14.00" style="">payable</text>
</g>
<!-- dewed.withdraw&#45;&gt;dewed.payable -->
<g id="edge19" class="edge" data-name="dewed.withdraw-&gt;dewed.payable">

<path fill="none" stroke="rgb(44,75,94)" stroke-width="2" d="M169.02,-198.73C214.27,-196.81 284.25,-196.76 330.98,-198.56" style=""/>
<polygon fill="rgb(44,75,94)" stroke="rgb(44,75,94)" stroke-width="2" points="331.02,-202.07 341.17,-199 331.33,-195.07 331.02,-202.07" style=""/>
</g>
<!-- dewed.withdraw&#45;&gt;dewed.payable -->
<g id="edge20" class="edge" data-name="dewed.withdraw-&gt;dewed.payable">

<path fill="none" stroke="rgb(44,75,94)" stroke-width="2" d="M169.02,-209.27C214.27,-211.19 284.25,-211.24 330.98,-209.44" style=""/>
<polygon fill="rgb(44,75,94)" stroke="rgb(44,75,94)" stroke-width="2" points="331.33,-212.93 341.17,-209 331.02,-205.93 331.33,-212.93" style=""/>
</g>
<!-- dewed.owner -->
<g id="node27" class="node" pointer-events="visible" data-name="dewed.owner">

<ellipse fill="rgb(65,73,86)" stroke="rgb(65,73,86)" stroke-width="3" cx="380.67" cy="-258" rx="35.34" ry="18" style=""/>
<text text-anchor="middle" x="380.67" y="-253.8" font-family="Times,serif" font-size="14.00" style="">owner</text>
</g>
<!-- dewed.withdraw&#45;&gt;dewed.owner -->
<g id="edge21" class="edge" data-name="dewed.withdraw-&gt;dewed.owner">

<path fill="none" stroke="rgb(44,75,94)" stroke-width="2" d="M165.57,-212.68C212.81,-222.68 290.03,-239.02 337.68,-249.11" style=""/>
<polygon fill="rgb(44,75,94)" stroke="rgb(44,75,94)" stroke-width="2" points="337.17,-252.58 347.67,-251.23 338.62,-245.73 337.17,-252.58" style=""/>
</g>
<!-- key -->
<g id="node30" class="node" pointer-events="visible" data-name="key">

<polygon fill="rgb(65,73,86)" stroke="rgba(46,62,86,0.9)" stroke-width="3" points="188.59,-1131 58.59,-1131 58.59,-1043 188.59,-1043 188.59,-1131" style=""/>
<text text-anchor="start" x="108.22" y="-1112.4" font-family="Times,serif" font-size="14.00" style="">Internal Call</text>
<text text-anchor="start" x="104.34" y="-1092.4" font-family="Times,serif" font-size="14.00" style="">External Call</text>
<text text-anchor="start" x="81.79" y="-1072.4" font-family="Times,serif" font-size="14.00" style="">Defined Contract</text>
<text text-anchor="start" x="68.19" y="-1052.4" font-family="Times,serif" font-size="14.00" style="">Undefined Contract</text>
</g>
<!-- key2 -->
<g id="node31" class="node" pointer-events="visible" data-name="key2">

<polygon fill="rgb(65,73,86)" stroke="rgba(46,62,86,0.9)" stroke-width="3" points="407.67,-1131 353.67,-1131 353.67,-1043 407.67,-1043 407.67,-1131" style=""/>
<text text-anchor="start" x="370.67" y="-1112.4" font-family="Times,serif" font-size="14.00" style="">   </text>
<text text-anchor="start" x="370.67" y="-1092.4" font-family="Times,serif" font-size="14.00" style="">   </text>
<polygon fill="rgb(48,64,88)" stroke="rgba(46,62,86,0.9)" points="368.67,-1067 368.67,-1087 393.67,-1087 393.67,-1067 368.67,-1067" style=""/>
<text text-anchor="start" x="370.67" y="-1072.4" font-family="Times,serif" font-size="14.00" style="">   </text>
<polygon fill="none" stroke="rgb(64,67,88)" points="370.67,-1049 370.67,-1065 391.67,-1065 391.67,-1049 370.67,-1049" style=""/>
</g>
<!-- key&#45;&gt;key2 -->
<g id="edge22" class="edge" data-name="key-&gt;key2">

<path fill="none" stroke="rgb(44,75,94)" stroke-width="2" d="M181.59,-1117C260.74,-1117 283.08,-1117 357.35,-1117" style=""/>
<polygon fill="rgb(44,75,94)" stroke="rgb(44,75,94)" stroke-width="2" points="357.67,-1120.5 367.67,-1117 357.67,-1113.5 357.67,-1120.5" style=""/>
</g>
<!-- key&#45;&gt;key2 -->
<g id="edge23" class="edge" data-name="key-&gt;key2">

<path fill="none" stroke="rgb(66,81,102)" stroke-width="2" d="M181.59,-1097C260.74,-1097 283.08,-1097 357.35,-1097" style=""/>
<polygon fill="rgb(66,81,102)" stroke="rgb(66,81,102)" stroke-width="2" points="357.67,-1100.5 367.67,-1097 357.67,-1093.5 357.67,-1100.5" style=""/>
</g>
</g>
</svg>